<svg width="360" height="270" viewBox="0 0 360 270" fill="none" xmlns="http://www.w3.org/2000/svg">
<path fill-rule="evenodd" clip-rule="evenodd" d="M179.734 180H269.601V90H179.734V180Z" fill="#056859"/>
<path fill-rule="evenodd" clip-rule="evenodd" d="M258.365 135.778C258.365 154.374 243.215 169.45 224.526 169.45C205.838 169.45 190.688 154.374 190.688 135.778V99.877H258.365V135.778Z" fill="#056859"/>
<path fill-rule="evenodd" clip-rule="evenodd" d="M294.086 105.807L292.941 103.962C292.768 103.682 292.4 103.596 292.121 103.77L291.054 104.433C290.657 104.681 290.144 104.395 290.144 103.926V102.669C290.144 102.339 289.877 102.072 289.548 102.072H287.378C287.049 102.072 286.783 102.339 286.783 102.669V103.926C286.783 104.395 286.269 104.681 285.872 104.433L284.806 103.77C284.526 103.596 284.159 103.682 283.985 103.962L282.84 105.807C282.666 106.087 282.752 106.455 283.031 106.629L284.465 107.521C284.84 107.754 284.84 108.301 284.465 108.535L283.031 109.426C282.752 109.601 282.666 109.968 282.84 110.248L283.985 112.094C284.159 112.374 284.526 112.46 284.806 112.285L285.872 111.622C286.269 111.375 286.783 111.661 286.783 112.129V113.386C286.783 113.716 287.049 113.983 287.378 113.983H289.548C289.877 113.983 290.144 113.716 290.144 113.386V112.129C290.144 111.661 290.657 111.375 291.054 111.622L292.121 112.285C292.4 112.46 292.768 112.374 292.941 112.094L294.086 110.248C294.26 109.968 294.174 109.601 293.895 109.426L292.461 108.535C292.086 108.301 292.086 107.754 292.461 107.521L293.895 106.629C294.174 106.455 294.26 106.087 294.086 105.807Z" fill="#043A33"/>
<path fill-rule="evenodd" clip-rule="evenodd" d="M294.086 123.614L292.941 121.768C292.768 121.488 292.4 121.402 292.121 121.577L291.054 122.24C290.657 122.487 290.144 122.201 290.144 121.733V120.476C290.144 120.146 289.877 119.879 289.548 119.879H287.378C287.049 119.879 286.783 120.146 286.783 120.476V121.733C286.783 122.201 286.269 122.487 285.872 122.24L284.806 121.577C284.526 121.402 284.159 121.488 283.985 121.768L282.84 123.614C282.666 123.894 282.752 124.261 283.031 124.435L284.465 125.327C284.84 125.561 284.84 126.108 284.465 126.341L283.031 127.233C282.752 127.407 282.666 127.775 282.84 128.055L283.985 129.9C284.159 130.18 284.526 130.266 284.806 130.092L285.872 129.428C286.269 129.181 286.783 129.467 286.783 129.935V131.193C286.783 131.523 287.049 131.79 287.378 131.79H289.548C289.877 131.79 290.144 131.523 290.144 131.193V129.935C290.144 129.467 290.657 129.181 291.054 129.428L292.121 130.092C292.4 130.266 292.768 130.18 292.941 129.9L294.086 128.055C294.26 127.775 294.174 127.407 293.895 127.233L292.461 126.341C292.086 126.108 292.086 125.561 292.461 125.327L293.895 124.435C294.174 124.261 294.26 123.894 294.086 123.614Z" fill="#043A33"/>
<path fill-rule="evenodd" clip-rule="evenodd" d="M294.086 141.416L292.941 139.571C292.768 139.291 292.4 139.205 292.121 139.379L291.054 140.043C290.657 140.29 290.144 140.004 290.144 139.536V138.278C290.144 137.949 289.877 137.682 289.548 137.682H287.378C287.049 137.682 286.783 137.949 286.783 138.278V139.536C286.783 140.004 286.269 140.29 285.872 140.043L284.806 139.379C284.526 139.205 284.159 139.291 283.985 139.571L282.84 141.416C282.666 141.696 282.752 142.064 283.031 142.238L284.465 143.13C284.84 143.364 284.84 143.91 284.465 144.144L283.031 145.036C282.752 145.21 282.666 145.578 282.84 145.858L283.985 147.703C284.159 147.983 284.526 148.069 284.806 147.895L285.872 147.231C286.269 146.984 286.783 147.27 286.783 147.738V148.995C286.783 149.325 287.049 149.592 287.378 149.592H289.548C289.877 149.592 290.144 149.325 290.144 148.995V147.738C290.144 147.27 290.657 146.984 291.054 147.231L292.121 147.895C292.4 148.069 292.768 147.983 292.941 147.703L294.086 145.858C294.26 145.578 294.174 145.21 293.895 145.036L292.461 144.144C292.086 143.91 292.086 143.364 292.461 143.13L293.895 142.238C294.174 142.064 294.26 141.696 294.086 141.416Z" fill="#043A33"/>
<path fill-rule="evenodd" clip-rule="evenodd" d="M294.086 159.221L292.941 157.376C292.768 157.096 292.4 157.01 292.121 157.184L291.054 157.848C290.657 158.094 290.144 157.809 290.144 157.341V156.083C290.144 155.753 289.877 155.486 289.548 155.486H287.378C287.049 155.486 286.783 155.753 286.783 156.083V157.341C286.783 157.809 286.269 158.094 285.872 157.848L284.806 157.184C284.526 157.01 284.159 157.096 283.985 157.376L282.84 159.221C282.666 159.501 282.752 159.869 283.031 160.043L284.465 160.935C284.84 161.168 284.84 161.715 284.465 161.949L283.031 162.841C282.752 163.014 282.666 163.382 282.84 163.662L283.985 165.507C284.159 165.788 284.526 165.873 284.806 165.7L285.872 165.036C286.269 164.789 286.783 165.074 286.783 165.543V166.8C286.783 167.13 287.049 167.397 287.378 167.397H289.548C289.877 167.397 290.144 167.13 290.144 166.8V165.543C290.144 165.074 290.657 164.789 291.054 165.036L292.121 165.7C292.4 165.873 292.768 165.788 292.941 165.507L294.086 163.662C294.26 163.382 294.174 163.014 293.895 162.841L292.461 161.949C292.086 161.715 292.086 161.168 292.461 160.935L293.895 160.043C294.174 159.869 294.26 159.501 294.086 159.221Z" fill="#043A33"/>
<path fill-rule="evenodd" clip-rule="evenodd" d="M311.774 105.807L310.629 103.962C310.455 103.682 310.088 103.596 309.808 103.77L308.742 104.433C308.345 104.681 307.831 104.395 307.831 103.926V102.669C307.831 102.339 307.564 102.072 307.235 102.072H305.066C304.737 102.072 304.47 102.339 304.47 102.669V103.926C304.47 104.395 303.957 104.681 303.56 104.433L302.493 103.77C302.213 103.596 301.846 103.682 301.672 103.962L300.527 105.807C300.354 106.087 300.44 106.455 300.719 106.629L302.152 107.521C302.527 107.754 302.527 108.301 302.152 108.535L300.719 109.426C300.44 109.601 300.354 109.968 300.527 110.248L301.672 112.094C301.846 112.374 302.213 112.46 302.493 112.285L303.56 111.622C303.957 111.375 304.47 111.661 304.47 112.129V113.386C304.47 113.716 304.737 113.983 305.066 113.983H307.235C307.564 113.983 307.831 113.716 307.831 113.386V112.129C307.831 111.661 308.345 111.375 308.742 111.622L309.808 112.285C310.088 112.46 310.455 112.374 310.629 112.094L311.774 110.248C311.948 109.968 311.862 109.601 311.582 109.426L310.149 108.535C309.774 108.301 309.774 107.754 310.149 107.521L311.582 106.629C311.862 106.455 311.948 106.087 311.774 105.807Z" fill="#043A33"/>
<path fill-rule="evenodd" clip-rule="evenodd" d="M311.774 123.614L310.629 121.768C310.455 121.488 310.088 121.402 309.808 121.577L308.742 122.24C308.345 122.487 307.831 122.201 307.831 121.733V120.476C307.831 120.146 307.564 119.879 307.235 119.879H305.066C304.737 119.879 304.47 120.146 304.47 120.476V121.733C304.47 122.201 303.957 122.487 303.56 122.24L302.493 121.577C302.213 121.402 301.846 121.488 301.672 121.768L300.527 123.614C300.354 123.894 300.44 124.261 300.719 124.435L302.152 125.327C302.527 125.561 302.527 126.108 302.152 126.341L300.719 127.233C300.44 127.407 300.354 127.775 300.527 128.055L301.672 129.9C301.846 130.18 302.213 130.266 302.493 130.092L303.56 129.428C303.957 129.181 304.47 129.467 304.47 129.935V131.193C304.47 131.523 304.737 131.79 305.066 131.79H307.235C307.564 131.79 307.831 131.523 307.831 131.193V129.935C307.831 129.467 308.345 129.181 308.742 129.428L309.808 130.092C310.088 130.266 310.455 130.18 310.629 129.9L311.774 128.055C311.948 127.775 311.862 127.407 311.582 127.233L310.149 126.341C309.774 126.108 309.774 125.561 310.149 125.327L311.582 124.435C311.862 124.261 311.948 123.894 311.774 123.614Z" fill="#043A33"/>
<path fill-rule="evenodd" clip-rule="evenodd" d="M311.774 141.416L310.629 139.571C310.455 139.291 310.088 139.205 309.808 139.379L308.742 140.043C308.345 140.29 307.831 140.004 307.831 139.536V138.278C307.831 137.949 307.564 137.682 307.235 137.682H305.066C304.737 137.682 304.47 137.949 304.47 138.278V139.536C304.47 140.004 303.957 140.29 303.56 140.043L302.493 139.379C302.213 139.205 301.846 139.291 301.672 139.571L300.527 141.416C300.354 141.696 300.44 142.064 300.719 142.238L302.152 143.13C302.527 143.364 302.527 143.91 302.152 144.144L300.719 145.036C300.44 145.21 300.354 145.578 300.527 145.858L301.672 147.703C301.846 147.983 302.213 148.069 302.493 147.895L303.56 147.231C303.957 146.984 304.47 147.27 304.47 147.738V148.995C304.47 149.325 304.737 149.592 305.066 149.592H307.235C307.564 149.592 307.831 149.325 307.831 148.995V147.738C307.831 147.27 308.345 146.984 308.742 147.231L309.808 147.895C310.088 148.069 310.455 147.983 310.629 147.703L311.774 145.858C311.948 145.578 311.862 145.21 311.582 145.036L310.149 144.144C309.774 143.91 309.774 143.364 310.149 143.13L311.582 142.238C311.862 142.064 311.948 141.696 311.774 141.416Z" fill="#043A33"/>
<path fill-rule="evenodd" clip-rule="evenodd" d="M311.774 159.221L310.629 157.376C310.455 157.096 310.088 157.01 309.808 157.184L308.742 157.848C308.345 158.094 307.831 157.809 307.831 157.341V156.083C307.831 155.753 307.564 155.486 307.235 155.486H305.066C304.737 155.486 304.47 155.753 304.47 156.083V157.341C304.47 157.809 303.957 158.094 303.56 157.848L302.493 157.184C302.213 157.01 301.846 157.096 301.672 157.376L300.527 159.221C300.354 159.501 300.44 159.869 300.719 160.043L302.152 160.935C302.527 161.168 302.527 161.715 302.152 161.949L300.719 162.841C300.44 163.014 300.354 163.382 300.527 163.662L301.672 165.507C301.846 165.788 302.213 165.873 302.493 165.7L303.56 165.036C303.957 164.789 304.47 165.074 304.47 165.543V166.8C304.47 167.13 304.737 167.397 305.066 167.397H307.235C307.564 167.397 307.831 167.13 307.831 166.8V165.543C307.831 165.074 308.345 164.789 308.742 165.036L309.808 165.7C310.088 165.873 310.455 165.788 310.629 165.507L311.774 163.662C311.948 163.382 311.862 163.014 311.582 162.841L310.149 161.949C309.774 161.715 309.774 161.168 310.149 160.935L311.582 160.043C311.862 159.869 311.948 159.501 311.774 159.221Z" fill="#043A33"/>
<path fill-rule="evenodd" clip-rule="evenodd" d="M329.454 105.807L328.309 103.962C328.135 103.682 327.767 103.596 327.488 103.77L326.421 104.433C326.024 104.681 325.511 104.395 325.511 103.926V102.669C325.511 102.339 325.244 102.072 324.915 102.072H322.746C322.417 102.072 322.15 102.339 322.15 102.669V103.926C322.15 104.395 321.636 104.681 321.239 104.433L320.173 103.77C319.893 103.596 319.526 103.682 319.352 103.962L318.207 105.807C318.033 106.087 318.119 106.455 318.399 106.629L319.832 107.521C320.207 107.754 320.207 108.301 319.832 108.535L318.399 109.426C318.119 109.601 318.033 109.968 318.207 110.248L319.352 112.094C319.526 112.374 319.893 112.46 320.173 112.285L321.239 111.622C321.636 111.375 322.15 111.661 322.15 112.129V113.386C322.15 113.716 322.417 113.983 322.746 113.983H324.915C325.244 113.983 325.511 113.716 325.511 113.386V112.129C325.511 111.661 326.024 111.375 326.421 111.622L327.488 112.285C327.767 112.46 328.135 112.374 328.309 112.094L329.454 110.248C329.627 109.968 329.541 109.601 329.262 109.426L327.829 108.535C327.454 108.301 327.454 107.754 327.829 107.521L329.262 106.629C329.541 106.455 329.627 106.087 329.454 105.807Z" fill="#043A33"/>
<path fill-rule="evenodd" clip-rule="evenodd" d="M329.454 123.614L328.309 121.768C328.135 121.488 327.767 121.402 327.488 121.577L326.421 122.24C326.024 122.487 325.511 122.201 325.511 121.733V120.476C325.511 120.146 325.244 119.879 324.915 119.879H322.746C322.417 119.879 322.15 120.146 322.15 120.476V121.733C322.15 122.201 321.636 122.487 321.239 122.24L320.173 121.577C319.893 121.402 319.526 121.488 319.352 121.768L318.207 123.614C318.033 123.894 318.119 124.261 318.399 124.435L319.832 125.327C320.207 125.561 320.207 126.108 319.832 126.341L318.399 127.233C318.119 127.407 318.033 127.775 318.207 128.055L319.352 129.9C319.526 130.18 319.893 130.266 320.173 130.092L321.239 129.428C321.636 129.181 322.15 129.467 322.15 129.935V131.193C322.15 131.523 322.417 131.79 322.746 131.79H324.915C325.244 131.79 325.511 131.523 325.511 131.193V129.935C325.511 129.467 326.024 129.181 326.421 129.428L327.488 130.092C327.767 130.266 328.135 130.18 328.309 129.9L329.454 128.055C329.627 127.775 329.541 127.407 329.262 127.233L327.829 126.341C327.454 126.108 327.454 125.561 327.829 125.327L329.262 124.435C329.541 124.261 329.627 123.894 329.454 123.614Z" fill="#043A33"/>
<path fill-rule="evenodd" clip-rule="evenodd" d="M329.454 141.416L328.309 139.571C328.135 139.291 327.767 139.205 327.488 139.379L326.421 140.043C326.024 140.29 325.511 140.004 325.511 139.536V138.278C325.511 137.949 325.244 137.682 324.915 137.682H322.746C322.417 137.682 322.15 137.949 322.15 138.278V139.536C322.15 140.004 321.636 140.29 321.239 140.043L320.173 139.379C319.893 139.205 319.526 139.291 319.352 139.571L318.207 141.416C318.033 141.696 318.119 142.064 318.399 142.238L319.832 143.13C320.207 143.364 320.207 143.91 319.832 144.144L318.399 145.036C318.119 145.21 318.033 145.578 318.207 145.858L319.352 147.703C319.526 147.983 319.893 148.069 320.173 147.895L321.239 147.231C321.636 146.984 322.15 147.27 322.15 147.738V148.995C322.15 149.325 322.417 149.592 322.746 149.592H324.915C325.244 149.592 325.511 149.325 325.511 148.995V147.738C325.511 147.27 326.024 146.984 326.421 147.231L327.488 147.895C327.767 148.069 328.135 147.983 328.309 147.703L329.454 145.858C329.627 145.578 329.541 145.21 329.262 145.036L327.829 144.144C327.454 143.91 327.454 143.364 327.829 143.13L329.262 142.238C329.541 142.064 329.627 141.696 329.454 141.416Z" fill="#043A33"/>
<path fill-rule="evenodd" clip-rule="evenodd" d="M329.454 159.221L328.309 157.376C328.135 157.096 327.767 157.01 327.488 157.184L326.421 157.848C326.024 158.094 325.511 157.809 325.511 157.341V156.083C325.511 155.753 325.244 155.486 324.915 155.486H322.746C322.417 155.486 322.15 155.753 322.15 156.083V157.341C322.15 157.809 321.636 158.094 321.239 157.848L320.173 157.184C319.893 157.01 319.526 157.096 319.352 157.376L318.207 159.221C318.033 159.501 318.119 159.869 318.399 160.043L319.832 160.935C320.207 161.168 320.207 161.715 319.832 161.949L318.399 162.841C318.119 163.014 318.033 163.382 318.207 163.662L319.352 165.507C319.526 165.788 319.893 165.873 320.173 165.7L321.239 165.036C321.636 164.789 322.15 165.074 322.15 165.543V166.8C322.15 167.13 322.417 167.397 322.746 167.397H324.915C325.244 167.397 325.511 167.13 325.511 166.8V165.543C325.511 165.074 326.024 164.789 326.421 165.036L327.488 165.7C327.767 165.873 328.135 165.788 328.309 165.507L329.454 163.662C329.627 163.382 329.541 163.014 329.262 162.841L327.829 161.949C327.454 161.715 327.454 161.168 327.829 160.935L329.262 160.043C329.541 159.869 329.627 159.501 329.454 159.221Z" fill="#043A33"/>
<path fill-rule="evenodd" clip-rule="evenodd" d="M347.141 105.807L345.996 103.962C345.822 103.682 345.455 103.596 345.175 103.77L344.109 104.433C343.712 104.681 343.198 104.395 343.198 103.926V102.669C343.198 102.339 342.932 102.072 342.602 102.072H340.433C340.104 102.072 339.837 102.339 339.837 102.669V103.926C339.837 104.395 339.324 104.681 338.927 104.433L337.86 103.77C337.581 103.596 337.213 103.682 337.04 103.962L335.895 105.807C335.721 106.087 335.807 106.455 336.086 106.629L337.519 107.521C337.895 107.754 337.895 108.301 337.519 108.535L336.086 109.426C335.807 109.601 335.721 109.968 335.895 110.248L337.04 112.094C337.213 112.374 337.581 112.46 337.86 112.285L338.927 111.622C339.324 111.375 339.837 111.661 339.837 112.129V113.386C339.837 113.716 340.104 113.983 340.433 113.983H342.602C342.932 113.983 343.198 113.716 343.198 113.386V112.129C343.198 111.661 343.712 111.375 344.109 111.622L345.175 112.285C345.455 112.46 345.822 112.374 345.996 112.094L347.141 110.248C347.315 109.968 347.229 109.601 346.95 109.426L345.516 108.535C345.141 108.301 345.141 107.754 345.516 107.521L346.95 106.629C347.229 106.455 347.315 106.087 347.141 105.807Z" fill="#043A33"/>
<path fill-rule="evenodd" clip-rule="evenodd" d="M347.141 123.614L345.996 121.768C345.822 121.488 345.455 121.402 345.175 121.577L344.109 122.24C343.712 122.487 343.198 122.201 343.198 121.733V120.476C343.198 120.146 342.932 119.879 342.602 119.879H340.433C340.104 119.879 339.837 120.146 339.837 120.476V121.733C339.837 122.201 339.324 122.487 338.927 122.24L337.86 121.577C337.581 121.402 337.213 121.488 337.04 121.768L335.895 123.614C335.721 123.894 335.807 124.261 336.086 124.435L337.519 125.327C337.895 125.561 337.895 126.108 337.519 126.341L336.086 127.233C335.807 127.407 335.721 127.775 335.895 128.055L337.04 129.9C337.213 130.18 337.581 130.266 337.86 130.092L338.927 129.428C339.324 129.181 339.837 129.467 339.837 129.935V131.193C339.837 131.523 340.104 131.79 340.433 131.79H342.602C342.932 131.79 343.198 131.523 343.198 131.193V129.935C343.198 129.467 343.712 129.181 344.109 129.428L345.175 130.092C345.455 130.266 345.822 130.18 345.996 129.9L347.141 128.055C347.315 127.775 347.229 127.407 346.95 127.233L345.516 126.341C345.141 126.108 345.141 125.561 345.516 125.327L346.95 124.435C347.229 124.261 347.315 123.894 347.141 123.614Z" fill="#043A33"/>
<path fill-rule="evenodd" clip-rule="evenodd" d="M347.141 141.416L345.996 139.571C345.822 139.291 345.455 139.205 345.175 139.379L344.109 140.043C343.712 140.29 343.198 140.004 343.198 139.536V138.278C343.198 137.949 342.932 137.682 342.602 137.682H340.433C340.104 137.682 339.837 137.949 339.837 138.278V139.536C339.837 140.004 339.324 140.29 338.927 140.043L337.86 139.379C337.581 139.205 337.213 139.291 337.04 139.571L335.895 141.416C335.721 141.696 335.807 142.064 336.086 142.238L337.519 143.13C337.895 143.364 337.895 143.91 337.519 144.144L336.086 145.036C335.807 145.21 335.721 145.578 335.895 145.858L337.04 147.703C337.213 147.983 337.581 148.069 337.86 147.895L338.927 147.231C339.324 146.984 339.837 147.27 339.837 147.738V148.995C339.837 149.325 340.104 149.592 340.433 149.592H342.602C342.932 149.592 343.198 149.325 343.198 148.995V147.738C343.198 147.27 343.712 146.984 344.109 147.231L345.175 147.895C345.455 148.069 345.822 147.983 345.996 147.703L347.141 145.858C347.315 145.578 347.229 145.21 346.95 145.036L345.516 144.144C345.141 143.91 345.141 143.364 345.516 143.13L346.95 142.238C347.229 142.064 347.315 141.696 347.141 141.416Z" fill="#043A33"/>
<path fill-rule="evenodd" clip-rule="evenodd" d="M347.141 159.221L345.996 157.376C345.822 157.096 345.455 157.01 345.175 157.184L344.109 157.848C343.712 158.094 343.198 157.809 343.198 157.341V156.083C343.198 155.753 342.932 155.486 342.602 155.486H340.433C340.104 155.486 339.837 155.753 339.837 156.083V157.341C339.837 157.809 339.324 158.094 338.927 157.848L337.86 157.184C337.581 157.01 337.213 157.096 337.04 157.376L335.895 159.221C335.721 159.501 335.807 159.869 336.086 160.043L337.519 160.935C337.895 161.168 337.895 161.715 337.519 161.949L336.086 162.841C335.807 163.014 335.721 163.382 335.895 163.662L337.04 165.507C337.213 165.788 337.581 165.873 337.86 165.7L338.927 165.036C339.324 164.789 339.837 165.074 339.837 165.543V166.8C339.837 167.13 340.104 167.397 340.433 167.397H342.602C342.932 167.397 343.198 167.13 343.198 166.8V165.543C343.198 165.074 343.712 164.789 344.109 165.036L345.175 165.7C345.455 165.873 345.822 165.788 345.996 165.507L347.141 163.662C347.315 163.382 347.229 163.014 346.95 162.841L345.516 161.949C345.141 161.715 345.141 161.168 345.516 160.935L346.95 160.043C347.229 159.869 347.315 159.501 347.141 159.221Z" fill="#043A33"/>
<path fill-rule="evenodd" clip-rule="evenodd" d="M69.5608 41.2503C69.5608 27.7556 58.6376 16.8164 45.1632 16.8164C31.6886 16.8164 20.7656 27.7556 20.7656 41.2503V183.945H30.4528V41.2503C30.4528 33.1138 37.0388 26.5179 45.1632 26.5179C53.2876 26.5179 59.8734 33.1138 59.8734 41.2503V183.945H69.5608V41.2503Z" fill="#055549"/>
<path fill-rule="evenodd" clip-rule="evenodd" d="M113.263 73.9618H81.1484V48.4043H113.263L102.94 61.1831L113.263 73.9618Z" fill="#2AFEBB"/>
<path fill-rule="evenodd" clip-rule="evenodd" d="M59.9297 66.7821H90.0371V41.2246H59.9297V66.7821Z" fill="#056859"/>
<path fill-rule="evenodd" clip-rule="evenodd" d="M81.1484 73.9603L90.0373 66.7812H81.1484V73.9603Z" fill="#055549"/>
<path fill-rule="evenodd" clip-rule="evenodd" d="M0 270H89.8664V180H0V270Z" fill="#043A33"/>
<path fill-rule="evenodd" clip-rule="evenodd" d="M48.5477 175.339C39.3635 169.767 37.8059 162.135 37.5938 156.379H41.3208C41.5206 161.512 42.9013 167.6 50.5657 172.204L48.5477 175.339Z" fill="#F97B26"/>
<path fill-rule="evenodd" clip-rule="evenodd" d="M37.5807 152.873C37.5884 152.388 37.5961 151.927 37.5961 151.496H41.3237C41.3237 151.946 41.316 152.427 41.308 152.933C41.2908 154.006 41.2721 155.165 41.3194 156.378H37.5924C37.5454 155.104 37.5637 153.921 37.5807 152.873Z" fill="#043A33"/>
<path fill-rule="evenodd" clip-rule="evenodd" d="M43.516 195.72H49.1739C49.1739 178.387 34.1971 175.721 34.1971 175.721L30.2031 179.387C30.2031 179.387 43.516 183.054 43.516 195.72Z" fill="#056859"/>
<path fill-rule="evenodd" clip-rule="evenodd" d="M25.0859 197.186C27.6413 199.322 27.6413 199.322 29.43 200.817C42.8636 185.668 30.7258 175.852 30.7258 175.852L25.3136 176.104C25.3136 176.104 35.6952 185.668 25.0859 197.186Z" fill="#056859"/>
<path fill-rule="evenodd" clip-rule="evenodd" d="M26.2344 179.638H37.7039V151.496H26.2344V179.638Z" fill="#043A33"/>
<path fill-rule="evenodd" clip-rule="evenodd" d="M28.8203 179.638H35.1285V149.486H28.8203V179.638Z" fill="#043A33"/>
<path fill-rule="evenodd" clip-rule="evenodd" d="M23.6562 179.639H40.287L37.7064 168.727H26.2369L23.6562 179.639Z" fill="#2AFEBB"/>
<path fill-rule="evenodd" clip-rule="evenodd" d="M37.5625 179.637H48.6612L53.0469 166.141H41.9481L37.5625 179.637Z" fill="#056859"/>
<path fill-rule="evenodd" clip-rule="evenodd" d="M43.7004 175.676L42.6022 179.243C25.3641 173.921 22.9478 163.653 22.6797 156.379H26.4067C26.6628 162.952 28.8549 171.093 43.7004 175.676Z" fill="#F97B26"/>
<path fill-rule="evenodd" clip-rule="evenodd" d="M22.6666 152.873C22.6743 152.388 22.6821 151.927 22.6821 151.496H26.4097C26.4097 151.946 26.4019 152.427 26.3939 152.933C26.3767 154.006 26.3581 155.165 26.4054 156.378H22.6784C22.6313 155.104 22.6497 153.921 22.6666 152.873Z" fill="#043A33"/>
<path fill-rule="evenodd" clip-rule="evenodd" d="M43.4375 199.165H51.4661V195.719H43.4375V199.165Z" fill="#2AFEBB"/>
<path fill-rule="evenodd" clip-rule="evenodd" d="M28.9909 204.831L22.9453 199.54L25.2094 196.945L31.255 202.236L28.9909 204.831Z" fill="#2AFEBB"/>
<path fill-rule="evenodd" clip-rule="evenodd" d="M29.9609 149.488H33.9753V142.309H29.9609V149.488Z" fill="#F97B26"/>
<path fill-rule="evenodd" clip-rule="evenodd" d="M35.9818 143.169C35.9818 145.389 34.1845 147.189 31.9674 147.189C29.7504 147.189 27.9531 145.389 27.9531 143.169C27.9531 140.948 29.7504 139.148 31.9674 139.148C34.1845 139.148 35.9818 140.948 35.9818 143.169Z" fill="#F97B26"/>
<mask id="mask0_21447_164672" style="mask-type:alpha" maskUnits="userSpaceOnUse" x="27" y="139" width="9" height="9">
<path fill-rule="evenodd" clip-rule="evenodd" d="M27.9531 143.169C27.9531 145.389 29.7501 147.189 31.9674 147.189C34.1845 147.189 35.9818 145.389 35.9818 143.169C35.9818 140.948 34.1845 139.148 31.9674 139.148C29.7501 139.148 27.9531 140.948 27.9531 143.169Z" fill="white"/>
</mask>
<g mask="url(#mask0_21447_164672)">
<path fill-rule="evenodd" clip-rule="evenodd" d="M34.474 139.651C34.474 141.871 32.6767 143.671 30.4596 143.671C28.2426 143.671 26.4453 141.871 26.4453 139.651C26.4453 137.431 28.2426 135.631 30.4596 135.631C32.6767 135.631 34.474 137.431 34.474 139.651Z" fill="#043A33"/>
</g>
<path fill-rule="evenodd" clip-rule="evenodd" d="M31.1129 138.575C31.1129 140.319 29.7007 141.734 27.9588 141.734C26.2169 141.734 24.8047 140.319 24.8047 138.575C24.8047 136.83 26.2169 135.416 27.9588 135.416C29.7007 135.416 31.1129 136.83 31.1129 138.575Z" fill="#043A33"/>
<path fill-rule="evenodd" clip-rule="evenodd" d="M270.602 90H360.468V0H270.602V90Z" fill="#2AFEBB"/>
<path fill-rule="evenodd" clip-rule="evenodd" d="M304.66 66.1959C304.933 66.1959 305.208 66.2488 305.47 66.3579C306.262 66.6861 306.773 67.4527 306.773 68.3107V76.4555C306.773 76.6792 306.955 76.8611 307.178 76.8611H321.566C321.789 76.8611 321.971 76.6792 321.971 76.4555V68.3107C321.971 67.4527 322.482 66.6861 323.273 66.3579C324.065 66.0296 324.968 66.2096 325.574 66.8162L331.324 72.5754C331.482 72.7334 331.739 72.7334 331.897 72.5754L342.07 62.3867C342.228 62.2287 342.229 61.9711 342.07 61.8131L336.32 56.0539C335.714 55.4473 335.534 54.5429 335.862 53.7504C336.19 52.9578 336.955 52.4457 337.812 52.4457H345.945C346.168 52.4457 346.35 52.2638 346.35 52.0398V37.6311C346.35 37.4074 346.168 37.2255 345.945 37.2255H337.812C336.955 37.2255 336.19 36.7133 335.862 35.9205C335.534 35.128 335.714 34.2239 336.32 33.6173L342.07 27.8581C342.229 27.7001 342.228 27.4425 342.07 27.2842L331.897 17.0958C331.739 16.9378 331.482 16.9378 331.324 17.0958L325.574 22.855C324.968 23.4616 324.065 23.6418 323.273 23.3133C322.482 22.9851 321.971 22.2185 321.971 21.3605V13.2157C321.971 12.992 321.789 12.8101 321.566 12.8101H307.178C306.955 12.8101 306.773 12.992 306.773 13.2157V21.3605C306.773 22.2185 306.262 22.9851 305.47 23.3133C304.679 23.6418 303.776 23.4619 303.17 22.855L297.42 17.0958C297.262 16.9375 297.005 16.9375 296.847 17.0958L286.674 27.2845C286.515 27.4425 286.515 27.7001 286.674 27.8581L292.424 33.6173C293.03 34.2239 293.21 35.128 292.882 35.9205C292.554 36.7133 291.788 37.2255 290.932 37.2255H282.799C282.576 37.2255 282.394 37.4074 282.394 37.6311V52.0398C282.394 52.2638 282.576 52.4457 282.799 52.4457H290.932C291.788 52.4457 292.554 52.9578 292.882 53.7504C293.21 54.5429 293.03 55.4473 292.424 56.0539L286.674 61.8131C286.515 61.9711 286.515 62.2287 286.674 62.387L296.847 72.5754C297.005 72.7337 297.262 72.7337 297.42 72.5754L303.17 66.8162C303.575 66.4108 304.112 66.1959 304.66 66.1959ZM321.565 78.5686H307.177C306.013 78.5686 305.067 77.6204 305.067 76.455V68.3102C305.067 68.0654 304.892 67.9666 304.817 67.9353C304.742 67.9043 304.548 67.8502 304.375 68.0233L298.625 73.7825C297.802 74.6069 296.463 74.6069 295.64 73.7825L285.467 63.5941C284.644 62.7697 284.644 61.4289 285.467 60.6048L291.217 54.8456C291.39 54.6725 291.336 54.4789 291.305 54.4035C291.274 54.3283 291.175 54.1533 290.931 54.1533H282.798C281.634 54.1533 280.688 53.205 280.688 52.0393V37.6306C280.688 36.4652 281.634 35.517 282.798 35.517H290.931C291.175 35.517 291.274 35.3419 291.305 35.2667C291.336 35.1913 291.39 34.9974 291.217 34.8244L285.467 29.0652C284.644 28.2413 284.644 26.9002 285.467 26.0761L295.64 15.8877C296.463 15.0633 297.802 15.0633 298.625 15.8877L304.375 21.6469C304.548 21.8197 304.741 21.7659 304.817 21.7346C304.892 21.7036 305.067 21.6045 305.067 21.36V13.2152C305.067 12.0495 306.013 11.1016 307.177 11.1016H321.565C322.728 11.1016 323.675 12.0495 323.675 13.2152V21.36C323.675 21.6045 323.85 21.7036 323.925 21.7346C324 21.7662 324.194 21.82 324.367 21.6469L330.118 15.8877C330.94 15.0636 332.279 15.0636 333.102 15.8877L343.276 26.0761C344.098 26.9002 344.098 28.2413 343.276 29.0652L337.525 34.8244C337.352 34.9974 337.406 35.1913 337.437 35.2667C337.468 35.3419 337.567 35.517 337.811 35.517H345.944C347.108 35.517 348.054 36.4652 348.054 37.6306V52.0393C348.054 53.205 347.108 54.1533 345.944 54.1533H337.811C337.567 54.1533 337.468 54.3283 337.437 54.4035C337.406 54.4789 337.352 54.6725 337.525 54.8456L343.276 60.6048C344.098 61.4289 344.098 62.7697 343.276 63.5941L333.102 73.7825C332.279 74.6066 330.94 74.6066 330.118 73.7825L324.367 68.0233C324.194 67.8502 324 67.9037 323.925 67.9353C323.85 67.9666 323.675 68.0654 323.675 68.3102V76.455C323.675 77.6204 322.728 78.5686 321.565 78.5686Z" fill="#043A33"/>
<path fill-rule="evenodd" clip-rule="evenodd" d="M314.226 57.219C307.329 57.219 301.719 51.6002 301.719 44.6935C301.719 37.7868 307.329 32.168 314.226 32.168C314.697 32.168 315.078 32.5503 315.078 33.022C315.078 33.4937 314.697 33.876 314.226 33.876C308.27 33.876 303.424 38.7288 303.424 44.6935C303.424 50.6582 308.27 55.511 314.226 55.511C320.182 55.511 325.027 50.6582 325.027 44.6935C325.027 44.2218 325.409 43.8395 325.88 43.8395C326.351 43.8395 326.733 44.2218 326.733 44.6935C326.733 51.6002 321.122 57.219 314.226 57.219Z" fill="#043A33"/>
<path fill-rule="evenodd" clip-rule="evenodd" d="M236.166 180L50.4141 207.803V242.197L236.166 270H360.001V180H236.166Z" fill="#055549"/>
<path fill-rule="evenodd" clip-rule="evenodd" d="M272.039 225.277C272.039 249.665 291.539 269.435 315.594 269.435C339.649 269.435 359.149 249.665 359.149 225.277C359.149 200.889 339.649 181.119 315.594 181.119C291.539 181.119 272.039 200.889 272.039 225.277Z" fill="#043A33"/>
<path fill-rule="evenodd" clip-rule="evenodd" d="M278.977 225.25C278.977 244.766 294.774 260.587 314.262 260.587C333.749 260.587 349.547 244.766 349.547 225.25C349.547 205.733 333.749 189.912 314.262 189.912C294.774 189.912 278.977 205.733 278.977 225.25Z" stroke="#043A33" stroke-width="0.503067"/>
<path fill-rule="evenodd" clip-rule="evenodd" d="M278.977 225.25C278.977 244.766 294.774 260.587 314.262 260.587C333.749 260.587 349.547 244.766 349.547 225.25C349.547 205.733 333.749 189.912 314.262 189.912C294.774 189.912 278.977 205.733 278.977 225.25Z" fill="#2AFEBB"/>
<path fill-rule="evenodd" clip-rule="evenodd" d="M287.797 225.801C287.797 240.744 299.892 252.857 314.812 252.857C329.732 252.857 341.827 240.744 341.827 225.801C341.827 210.859 329.732 198.746 314.812 198.746C299.892 198.746 287.797 210.859 287.797 225.801Z" fill="#043A33"/>
<path fill-rule="evenodd" clip-rule="evenodd" d="M297.727 225.8C297.727 235.253 305.379 242.917 314.818 242.917C324.257 242.917 331.909 235.253 331.909 225.8C331.909 216.347 324.257 208.684 314.818 208.684C305.379 208.684 297.727 216.347 297.727 225.8Z" fill="#2AFEBB"/>
<path fill-rule="evenodd" clip-rule="evenodd" d="M306.547 225.802C306.547 230.376 310.25 234.084 314.817 234.084C319.384 234.084 323.087 230.376 323.087 225.802C323.087 221.227 319.384 217.52 314.817 217.52C310.25 217.52 306.547 221.227 306.547 225.802Z" fill="#043A33"/>
<path fill-rule="evenodd" clip-rule="evenodd" d="M40.125 241.954H49.4004V209.592H40.125V241.954Z" fill="#C9F001"/>
<path fill-rule="evenodd" clip-rule="evenodd" d="M35.5156 226.31H54.3055V207.492H35.5156V226.31Z" fill="#C9F001"/>
<path fill-rule="evenodd" clip-rule="evenodd" d="M8.7932 260.156L4.38281 268.991H13.2041L8.7932 260.156Z" fill="#055549"/>
<path fill-rule="evenodd" clip-rule="evenodd" d="M20.3708 254.635L13.2031 268.991H27.5376V268.989L20.3708 254.635Z" fill="#055549"/>
<path fill-rule="evenodd" clip-rule="evenodd" d="M98.6604 260.156L94.25 268.991H103.071L98.6604 260.156Z" fill="#055549"/>
<path fill-rule="evenodd" clip-rule="evenodd" d="M110.238 254.635L103.07 268.991H117.405V268.989L110.238 254.635Z" fill="#055549"/>
<rect x="89.8672" y="111.951" width="8.82125" height="46.3804" fill="#2AFEBB"/>
<path fill-rule="evenodd" clip-rule="evenodd" d="M154.922 168.27V177.104H108.61V168.27H154.922Z" fill="#2AFEBB"/>
<path fill-rule="evenodd" clip-rule="evenodd" d="M135.102 125.559L141.339 131.805L108.592 164.601L102.354 158.354L135.102 125.559Z" fill="#2AFEBB"/>
<circle cx="223" cy="136" r="32" fill="#FF6C6C"/>
<path d="M232.5 135.5L241 144L231.5 153.5L223 144.5V127L232 118L241 127L232.5 135.5Z" fill="white"/>
<path d="M213.5 135.5L205 144L214.5 153.5L223 144.5V127L214 118L205 127L213.5 135.5Z" fill="#EFF3F9"/>
</svg>
